<?xml version="1.0" standalone="no"?>
<!DOCTYPE svg PUBLIC "-//W3C//DTD SVG 20010904//EN"
 "http://www.w3.org/TR/2001/REC-SVG-20010904/DTD/svg10.dtd">
<svg version="1.0" xmlns="http://www.w3.org/2000/svg"
 width="460.000000pt" height="460.000000pt" viewBox="0 0 460.000000 460.000000"
 preserveAspectRatio="xMidYMid meet">
<metadata>
Created by potrace 1.14, written by Peter Selinger 2001-2017
</metadata>
<g transform="translate(0.000000,460.000000) scale(0.100000,-0.100000)"
fill="#000000" stroke="none">
<path d="M0 3001 l0 -1599 48 -11 c26 -5 72 -21 102 -35 51 -24 53 -26 24 -26
-17 0 -64 -7 -103 -16 -55 -13 -71 -20 -71 -34 0 -17 3 -17 63 2 139 44 333 7
567 -108 30 -15 86 -39 125 -54 l70 -27 -54 -24 c-30 -12 -49 -25 -43 -27 12
-4 161 46 180 60 8 7 12 7 12 0 0 -6 -15 -22 -32 -37 -18 -14 -42 -34 -53 -42
-60 -50 -200 -119 -335 -166 -55 -20 -214 -53 -292 -62 -32 -4 -58 -9 -58 -13
0 -13 85 -41 174 -57 127 -24 236 -5 248 43 6 21 93 66 180 92 l58 18 -40 -56
c-45 -64 -64 -87 -154 -187 -35 -38 -84 -97 -109 -130 -36 -48 -56 -65 -99
-82 -87 -36 -220 -56 -320 -49 l-88 6 0 -190 0 -190 2300 0 2300 0 0 525 c0
466 -2 525 -15 525 -21 0 -75 41 -75 56 0 7 10 15 23 17 19 4 19 4 -5 6 -15 0
-42 15 -60 32 -18 17 -58 47 -88 67 -123 81 -220 109 -276 79 -26 -14 -26 -16
-7 -17 18 0 22 -8 28 -51 13 -94 88 -251 192 -402 58 -84 57 -86 -26 -23 -56
42 -93 91 -105 139 -6 26 6 38 19 17 3 -6 11 -10 17 -10 6 0 3 9 -7 20 -10 11
-24 20 -32 20 -7 0 -13 6 -13 13 0 15 -85 142 -122 182 -23 24 -34 28 -72 27
-26 -1 -65 -9 -88 -16 -35 -13 -45 -13 -67 -1 -43 21 -101 82 -117 121 -8 20
-18 34 -20 31 -9 -9 31 -90 57 -117 13 -14 39 -37 57 -51 l33 -25 -31 -72
c-16 -39 -30 -76 -30 -82 0 -7 -6 -26 -14 -43 -7 -18 -28 -70 -46 -117 -29
-74 -102 -216 -119 -230 -3 -3 -21 -25 -40 -50 -59 -78 -142 -137 -266 -191
-77 -32 -85 -34 -200 -33 -112 0 -125 2 -192 31 -84 37 -99 30 -20 -9 l52 -26
-45 -11 c-25 -7 -52 -14 -60 -16 -11 -4 -24 24 -52 118 -74 243 -81 332 -38
476 21 70 57 133 46 80 -11 -53 -17 -177 -8 -183 5 -3 12 29 15 72 24 295 191
444 597 531 118 25 235 36 205 19 -11 -6 -22 -14 -25 -17 -10 -13 -107 -71
-118 -71 -7 0 -12 -4 -12 -10 0 -5 3 -10 8 -10 12 0 164 91 205 123 l38 29 -6
-28 c-4 -16 -14 -44 -22 -62 -8 -19 -12 -36 -10 -39 9 -8 34 49 52 116 10 40
26 72 44 90 28 27 116 139 138 176 80 131 92 159 132 313 l26 103 18 -59 c9
-32 17 -81 17 -110 0 -52 -25 -132 -41 -132 -5 0 -12 0 -16 0 -5 -1 -11 14
-14 32 l-6 33 -2 -36 c0 -19 4 -40 9 -45 7 -7 3 -24 -10 -52 -21 -44 -27 -107
-10 -117 6 -3 10 -1 10 5 0 6 9 4 23 -5 13 -8 26 -13 29 -9 3 3 52 0 109 -6
99 -11 328 -2 418 16 l31 7 0 1468 0 1469 -1090 0 c-1032 0 -1090 -1 -1090
-17 1 -24 39 -92 41 -73 3 32 21 -60 29 -152 10 -113 28 -155 67 -160 52 -6
93 55 93 139 0 53 20 49 21 -4 1 -26 1 -51 0 -55 0 -4 4 -43 10 -85 10 -78 34
-156 68 -223 10 -19 23 -46 29 -60 18 -42 39 -172 37 -225 -10 -200 -20 -284
-43 -345 -3 -8 -6 -17 -7 -20 -1 -3 -6 -16 -12 -30 -6 -14 -16 -42 -23 -62
-12 -33 -15 -35 -27 -20 -12 16 -12 15 -6 -2 4 -13 3 -17 -5 -12 -8 5 -10 2
-6 -8 3 -9 11 -13 18 -9 6 3 3 -3 -6 -14 -10 -11 -18 -25 -18 -32 0 -7 -5 -9
-10 -6 -6 4 -7 12 -3 18 8 14 13 37 7 37 -2 0 -10 -12 -18 -27 -25 -47 -18 -3
9 54 39 82 64 257 43 297 -6 12 -13 37 -14 56 -5 66 -53 134 -163 229 -42 36
-51 51 -57 87 -7 46 -12 52 -32 32 -10 -10 -14 -10 -21 0 -5 9 -11 6 -19 -12
-21 -47 -84 -105 -139 -131 -31 -14 -60 -25 -65 -25 -19 0 -97 -87 -116 -130
-24 -53 -42 -115 -42 -148 0 -28 -48 -151 -65 -169 -14 -14 -21 35 -31 229 -9
171 6 277 54 376 37 75 72 137 89 157 5 6 12 18 16 28 16 43 33 9 28 -58 -1
-12 3 -32 8 -45 7 -18 10 -20 10 -7 1 9 5 17 9 17 14 0 61 106 73 162 22 115
30 141 54 172 14 18 25 38 25 44 0 7 6 12 13 12 13 0 64 100 72 143 3 15 7 38
10 52 l5 25 -234 0 c-213 0 -234 -2 -241 -17 -7 -17 -8 -16 -15 2 -6 17 -9 13
-20 -22 -13 -43 -42 -59 -53 -30 -3 6 -6 0 -6 -15 -1 -26 -4 -28 -41 -28 -29
0 -40 4 -40 15 0 8 -4 15 -8 15 -5 0 -13 10 -19 22 l-9 21 -22 -23 -22 -24 0
27 c0 25 -3 27 -45 27 -25 0 -45 -5 -45 -11 0 -5 -5 -7 -10 -4 -6 3 -10 15
-10 26 0 19 -15 19 -785 19 l-785 0 0 -1599z m1700 1429 c0 -5 -4 -10 -10 -10
-5 0 -10 -7 -10 -15 0 -8 -9 -15 -20 -15 -11 0 -20 7 -20 15 0 8 9 15 20 15
11 0 20 5 20 10 0 6 5 10 10 10 6 0 10 -4 10 -10z m100 0 c0 -5 -6 -10 -14
-10 -8 0 -18 5 -21 10 -3 6 3 10 14 10 12 0 21 -4 21 -10z m-440 -60 c0 -5 -5
-10 -11 -10 -5 0 -7 5 -4 10 3 6 8 10 11 10 2 0 4 -4 4 -10z m1477 -602 c-3
-7 -5 -2 -5 12 0 14 2 19 5 13 2 -7 2 -19 0 -25z m-463 -159 c44 -38 56 -79
56 -186 0 -46 4 -83 8 -83 11 0 84 78 112 120 29 42 39 50 67 50 32 0 63 -57
63 -116 0 -26 -9 -80 -19 -118 -11 -39 -22 -87 -25 -107 -6 -35 -8 -36 -58
-42 -28 -4 -56 -11 -62 -18 -8 -8 0 -9 29 -4 22 4 42 7 45 7 26 0 31 -5 28
-29 l-3 -28 -110 -7 c-60 -4 -112 -4 -115 -2 -2 3 3 19 13 35 9 17 17 36 17
42 0 22 -18 -9 -45 -78 -51 -129 -147 -337 -153 -331 -2 2 5 37 16 78 11 40
29 118 42 173 12 55 28 120 36 144 17 55 11 66 -10 17 -8 -20 -19 -36 -23 -36
-5 0 -37 25 -72 55 -68 60 -128 95 -162 95 -15 0 -19 4 -15 16 3 8 15 52 27
96 27 107 60 171 117 225 55 52 73 61 124 62 28 1 46 -7 72 -30z m-390 -406
c-8 -72 -14 -80 -15 -22 l-1 44 -10 -47 c-6 -26 -16 -49 -24 -52 -20 -8 -18
23 6 67 11 20 20 44 20 52 0 8 7 15 15 15 13 0 14 -10 9 -57z m53 2 c-9 -8
-17 -20 -20 -27 -2 -7 -7 -10 -11 -6 -11 10 13 48 30 48 14 0 14 -2 1 -15z
m126 -43 c9 -8 17 -27 17 -42 0 -36 23 -54 60 -47 16 4 32 2 35 -3 9 -14 -37
-40 -73 -40 -85 0 -138 76 -94 135 17 23 24 23 55 -3z m-153 -45 c0 -27 50
-101 77 -115 36 -18 83 -21 133 -8 l51 13 -6 -41 c-3 -22 -18 -88 -32 -146
-27 -110 -44 -156 -41 -110 2 33 -22 120 -34 120 -11 0 16 53 36 69 14 12 16
10 16 -10 0 -17 3 -20 11 -12 6 6 9 19 7 29 -3 16 -16 20 -71 25 -56 5 -72 10
-97 34 -17 16 -30 34 -30 40 0 20 -36 46 -54 39 -9 -3 -16 -15 -16 -26 0 -17
2 -18 15 -8 25 20 28 5 9 -47 -10 -28 -18 -89 -20 -147 -5 -125 10 -158 94
-199 31 -15 77 -39 102 -53 33 -18 55 -24 83 -20 30 3 37 1 33 -10 -7 -17 10
-19 21 -1 4 6 15 17 24 22 9 6 28 18 42 28 14 10 33 17 42 15 13 -2 12 -7 -7
-28 -13 -14 -48 -56 -78 -95 -30 -38 -57 -72 -60 -75 -3 -3 -14 -23 -25 -44
-11 -22 -25 -44 -31 -50 -5 -6 -17 -29 -26 -51 -14 -36 -20 -40 -54 -43 -45
-3 -59 -12 -19 -12 37 0 54 -25 55 -80 0 -53 -45 -157 -72 -166 -10 -3 -16 -9
-13 -14 8 -12 -48 -40 -80 -40 -48 0 -82 27 -111 87 -28 56 -29 63 -27 203 1
129 13 248 43 421 14 79 32 265 31 324 0 28 -7 74 -14 103 l-14 53 46 23 c60
30 61 30 61 3z m-137 -19 c2 -7 -7 -25 -21 -40 -14 -16 -21 -28 -15 -28 6 0
16 7 23 15 20 24 28 18 38 -28 10 -50 -1 -324 -17 -383 -5 -22 -13 -66 -16
-99 -4 -33 -13 -109 -22 -170 -22 -158 -15 -323 18 -390 27 -56 88 -104 132
-105 28 0 81 23 103 45 7 6 28 36 47 66 32 50 34 60 35 138 0 82 16 146 33
135 5 -3 6 1 3 9 -5 15 53 105 150 231 73 94 71 90 95 147 20 47 118 156 159
178 21 11 22 10 22 -21 -1 -82 -42 -333 -70 -428 -17 -58 -56 -154 -85 -215
-48 -97 -65 -120 -143 -196 -111 -109 -170 -139 -275 -139 -128 0 -225 65
-316 213 -30 49 -54 221 -46 332 3 44 8 116 11 160 18 273 48 473 80 537 21
41 67 62 77 36z m697 -78 c0 -53 -91 -95 -147 -68 -21 10 -28 20 -28 43 0 37
29 46 56 16 27 -29 65 -27 85 4 20 30 34 32 34 5z m65 -30 c-9 -41 -17 -33 -9
9 4 17 9 30 11 27 3 -2 2 -19 -2 -36z m-600 -20 c9 -28 41 -47 93 -55 23 -4
42 -10 42 -13 0 -4 -9 -18 -20 -32 -24 -31 -25 -39 -4 -54 13 -10 38 -95 30
-103 -1 -2 -19 20 -40 47 -29 38 -48 52 -79 61 -23 6 -48 18 -54 27 -16 20
-17 83 -1 117 14 30 24 32 33 5z m431 -80 c52 0 103 21 118 48 7 13 12 4 22
-38 12 -52 12 -56 -8 -70 -11 -8 -41 -35 -64 -59 l-44 -45 0 34 c0 33 32 80
54 80 6 0 4 -5 -4 -10 -13 -8 -12 -10 3 -10 10 0 17 8 17 20 0 24 -15 25 -87
4 -54 -16 -56 -16 -85 6 -16 12 -32 19 -35 16 -3 -3 -8 -25 -10 -48 -3 -31 -1
-39 7 -28 5 8 10 25 10 38 0 22 1 22 25 6 19 -12 37 -15 71 -10 45 6 45 6 29
-16 -8 -13 -15 -34 -15 -49 0 -31 -25 -42 -71 -29 -33 10 -51 6 -90 -21 -15
-10 -39 -23 -55 -29 l-29 -11 35 36 c19 20 45 38 57 41 13 4 23 10 23 15 0 15
-20 10 -51 -11 l-28 -21 25 68 c14 37 35 90 46 116 l21 48 32 -36 c29 -31 38
-35 81 -35z m-1406 -1393 c25 -71 27 -173 3 -206 l-16 -24 -19 23 c-17 21 -18
21 -18 2 0 -11 6 -25 14 -31 7 -6 11 -22 9 -36 -8 -37 15 -152 37 -188 26 -42
25 -48 -10 -137 -16 -41 -29 -88 -29 -105 l1 -30 10 35 11 35 15 -62 15 -62
-31 -48 c-18 -26 -45 -63 -62 -82 l-30 -34 -2 59 c-1 37 -3 46 -5 24 -2 -19
-10 -68 -18 -109 -17 -84 -19 -162 -6 -208 6 -20 6 -35 0 -38 -17 -11 -9 -27
10 -22 29 7 35 -51 16 -143 -23 -109 -35 -110 -35 -5 -1 50 -3 108 -6 130 -21
173 -37 275 -45 302 -9 27 -6 39 15 75 13 24 27 61 30 83 6 38 5 37 -14 -14
-11 -30 -24 -57 -29 -60 -14 -10 -76 -141 -106 -226 -16 -44 -37 -90 -48 -102
l-20 -23 21 0 c58 0 -9 -108 -141 -228 -21 -19 -37 -31 -37 -27 0 7 31 56 46
72 6 6 17 26 24 45 8 18 17 35 20 38 16 12 141 345 166 442 27 104 28 107 76
143 26 21 48 44 48 52 0 17 -85 -50 -185 -146 -78 -75 -135 -144 -135 -162 0
-6 -8 -9 -20 -6 -11 3 -22 2 -25 -3 -3 -4 4 -10 15 -13 31 -8 24 -23 -43 -90
-44 -44 -87 -74 -149 -104 -47 -24 -89 -43 -92 -43 -4 0 17 21 46 47 58 51
155 157 196 215 15 20 74 88 130 150 57 62 123 141 145 176 30 44 50 65 69 69
28 6 73 41 64 51 -3 3 -14 -2 -25 -12 -10 -9 -70 -31 -132 -48 -63 -16 -138
-43 -166 -59 -37 -21 -60 -28 -78 -23 -33 8 -32 -2 2 -19 l26 -14 -28 -19
c-41 -27 -196 -25 -279 3 l-59 20 50 6 c176 21 402 99 548 190 75 46 174 140
175 165 0 7 -4 11 -9 8 -5 -3 -11 18 -13 47 -4 42 1 63 23 112 33 69 53 181
44 240 -6 36 -6 39 9 25 9 -9 25 -41 36 -73z m-291 -849 c-13 -10 -29 -22 -36
-28 -7 -5 -16 -10 -20 -10 -4 0 10 17 32 38 22 20 42 33 44 28 2 -5 -7 -18
-20 -28z"/>
<path d="M2070 3299 c0 -5 8 -9 19 -9 10 0 24 -7 31 -15 7 -8 18 -15 25 -15 7
0 15 -7 19 -15 3 -8 10 -15 15 -15 16 0 3 23 -25 43 -31 23 -84 39 -84 26z"/>
<path d="M2113 1918 c-23 -30 -24 -41 -2 -21 12 12 20 25 17 28 -3 3 -10 0
-15 -7z"/>
<path d="M4516 1622 c-3 -5 -51 -12 -106 -15 -104 -6 -245 -38 -277 -63 -15
-11 -15 -13 -2 -14 8 0 19 4 25 9 20 20 62 14 129 -18 72 -35 217 -85 280 -97
l35 -6 0 85 0 86 -27 3 c-20 2 -28 8 -27 21 2 17 -21 24 -30 9z"/>
<path d="M3909 1538 c-6 -24 -15 -54 -20 -68 -4 -14 -13 -44 -19 -68 -12 -47
-35 -62 -96 -62 -19 0 -34 -4 -34 -9 0 -17 48 -21 86 -8 42 15 40 11 89 177 9
30 19 61 22 68 2 6 0 12 -6 12 -6 0 -15 -19 -22 -42z"/>
<path d="M4204 1431 c-37 -16 -41 -34 -6 -27 26 6 35 2 73 -39 23 -25 68 -64
98 -88 31 -23 58 -45 61 -48 6 -7 84 -59 133 -88 l37 -23 0 130 c0 126 -1 130
-22 135 -13 3 -54 14 -93 26 -78 23 -248 36 -281 22z"/>
</g>
</svg>
